<svg width="40" height="40" viewBox="0 0 40 40" fill="none" xmlns="http://www.w3.org/2000/svg">
  <!-- Alternative modern logo design -->
  <defs>
    <linearGradient id="altGradient" x1="0%" y1="0%" x2="100%" y2="100%">
      <stop offset="0%" style="stop-color:#2563EB;stop-opacity:1" />
      <stop offset="50%" style="stop-color:#0891B2;stop-opacity:1" />
      <stop offset="100%" style="stop-color:#059669;stop-opacity:1" />
    </linearGradient>
    <filter id="glow">
      <feGaussianBlur stdDeviation="1" result="coloredBlur"/>
      <feMerge> 
        <feMergeNode in="coloredBlur"/>
        <feMergeNode in="SourceGraphic"/> 
      </feMerge>
    </filter>
  </defs>
  
  <!-- Modern hexagonal background -->
  <path d="M20 2 L32 9 L32 23 L20 30 L8 23 L8 9 Z" fill="url(#altGradient)" stroke="#1E40AF" stroke-width="1" filter="url(#glow)"/>
  
  <!-- Stylized medical cross with tech elements -->
  <g transform="translate(20,20)">
    <!-- Vertical bar -->
    <rect x="-2" y="-10" width="4" height="20" rx="2" fill="white" opacity="0.95"/>
    <!-- Horizontal bar -->
    <rect x="-10" y="-2" width="20" height="4" rx="2" fill="white" opacity="0.95"/>
    
    <!-- Tech corner elements -->
    <rect x="-8" y="-8" width="3" height="3" rx="0.5" fill="#60A5FA" opacity="0.8"/>
    <rect x="5" y="-8" width="3" height="3" rx="0.5" fill="#60A5FA" opacity="0.8"/>
    <rect x="-8" y="5" width="3" height="3" rx="0.5" fill="#34D399" opacity="0.8"/>
    <rect x="5" y="5" width="3" height="3" rx="0.5" fill="#34D399" opacity="0.8"/>
    
    <!-- Central tech dot -->
    <circle cx="0" cy="0" r="1.5" fill="#F1F5F9" opacity="0.9"/>
  </g>
  
  <!-- Subtle corner accents -->
  <circle cx="6" cy="6" r="1" fill="#60A5FA" opacity="0.4"/>
  <circle cx="34" cy="6" r="1" fill="#60A5FA" opacity="0.4"/>
  <circle cx="6" cy="34" r="1" fill="#34D399" opacity="0.4"/>
  <circle cx="34" cy="34" r="1" fill="#34D399" opacity="0.4"/>
</svg>